<svg xmlns="http://www.w3.org/2000/svg" xmlns:xlink="http://www.w3.org/1999/xlink" width="500" zoomAndPan="magnify" viewBox="0 0 375 374.999991" height="500" preserveAspectRatio="xMidYMid meet" version="1.0"><defs><g/><clipPath id="24aa44bd54"><path d="M 57 269 L 320 269 L 320 291.492188 L 57 291.492188 Z M 57 269 " clip-rule="nonzero"/></clipPath><clipPath id="b9b215c1a8"><path d="M 197 180 L 332.398438 180 L 332.398438 267 L 197 267 Z M 197 180 " clip-rule="nonzero"/></clipPath><clipPath id="a0abf06e1f"><path d="M 48 24.492188 L 145 24.492188 L 145 172 L 48 172 Z M 48 24.492188 " clip-rule="nonzero"/></clipPath></defs><g clip-path="url(#24aa44bd54)"><path fill="#ffffff" d="M 82.3125 282.046875 C 108.867188 274.339844 137.863281 267.578125 165.679688 270.632812 C 165.679688 270.632812 173.894531 282.3125 188.441406 282.3125 C 202.988281 282.3125 211.203125 270.632812 211.203125 270.632812 C 239.023438 267.578125 268.015625 274.339844 294.570312 282.046875 L 319.070312 270.769531 L 319.148438 270.886719 C 311.558594 277.8125 303.976562 284.742188 296.382812 291.664062 L 293.53125 291.300781 L 293.527344 291.296875 C 278.695312 286.875 263.320312 283.152344 247.957031 281.0625 C 237.042969 279.523438 225.691406 278.019531 214.6875 279.476562 C 208.679688 288.300781 198.488281 291.085938 188.4375 291.496094 C 178.394531 291.085938 168.199219 288.300781 162.1875 279.476562 C 151.191406 278.019531 139.832031 279.523438 128.925781 281.0625 C 113.558594 283.152344 98.1875 286.875 83.347656 291.296875 L 83.347656 291.300781 L 80.496094 291.664062 C 72.90625 284.742188 65.320312 277.8125 57.730469 270.886719 L 57.804688 270.769531 Z M 82.3125 282.046875 " fill-opacity="1" fill-rule="nonzero"/></g><g clip-path="url(#b9b215c1a8)"><path fill="#ffffff" d="M 243.734375 246.800781 C 227.355469 243.203125 209.398438 248.710938 197.820312 260.925781 C 205.058594 241.457031 221.160156 237.792969 228.125 237.132812 C 256.699219 235.335938 288.179688 252.304688 316.210938 256.429688 L 279.425781 180.480469 C 296.960938 209.070312 314.507812 237.660156 332.042969 266.25 C 324.667969 266.234375 317.59375 265.964844 310.300781 264.796875 C 287.722656 260.308594 266.21875 251.738281 243.734375 246.800781 Z M 243.734375 246.800781 " fill-opacity="1" fill-rule="nonzero"/></g><path fill="#ffffff" d="M 133.148438 246.800781 C 110.664062 251.742188 89.160156 260.308594 66.582031 264.800781 C 59.285156 265.96875 52.214844 266.238281 44.839844 266.253906 C 62.375 237.664062 79.917969 209.074219 97.457031 180.484375 L 60.671875 256.433594 C 88.707031 252.308594 120.1875 235.339844 148.761719 237.136719 C 155.726562 237.796875 171.824219 241.457031 179.0625 260.929688 C 167.488281 248.710938 149.527344 243.203125 133.148438 246.800781 Z M 133.148438 246.800781 " fill-opacity="1" fill-rule="nonzero"/><path fill="#ffffff" d="M 206.0625 264.714844 C 205.480469 265.097656 205.171875 265.300781 205.171875 265.300781 L 205.105469 265.339844 C 204.433594 265.777344 203.53125 265.625 203.046875 264.980469 C 202.539062 264.300781 202.675781 263.339844 203.355469 262.835938 C 203.355469 262.835938 203.441406 262.769531 203.613281 262.640625 C 203.78125 262.523438 204.027344 262.347656 204.347656 262.121094 C 204.992188 261.679688 205.9375 261.050781 207.183594 260.339844 C 209.675781 258.925781 213.339844 257.039062 218.042969 255.578125 C 222.726562 254.121094 228.4375 252.945312 234.621094 253.054688 C 237.703125 253.097656 240.886719 253.425781 244.054688 254.0625 C 247.210938 254.683594 250.410156 255.695312 253.378906 256.835938 C 256.359375 258 259.320312 259.070312 262.257812 260.078125 C 265.210938 261.078125 268.132812 262.007812 270.976562 262.871094 C 273.832031 263.703125 276.582031 264.539062 279.207031 265.269531 C 281.835938 266 284.335938 266.660156 286.644531 267.242188 C 291.265625 268.398438 295.132812 269.335938 297.855469 269.917969 C 300.578125 270.5 302.136719 270.828125 302.136719 270.828125 C 302.136719 270.828125 295.785156 270.253906 286.363281 268.523438 C 284.011719 268.082031 281.46875 267.574219 278.78125 267.007812 C 276.101562 266.421875 273.273438 265.804688 270.371094 265.046875 C 267.472656 264.292969 264.484375 263.476562 261.460938 262.585938 C 258.433594 261.679688 255.363281 260.707031 252.363281 259.679688 C 249.359375 258.632812 246.460938 257.757812 243.453125 257.226562 C 240.46875 256.683594 237.488281 256.441406 234.605469 256.453125 C 228.839844 256.496094 223.484375 257.460938 219.074219 258.855469 C 214.65625 260.246094 211.121094 261.855469 208.757812 263.152344 C 207.574219 263.804688 206.664062 264.335938 206.0625 264.714844 Z M 206.0625 264.714844 " fill-opacity="1" fill-rule="nonzero"/><path fill="#ffffff" d="M 98.097656 267.007812 C 95.414062 267.574219 92.867188 268.082031 90.515625 268.523438 C 81.097656 270.25 74.742188 270.828125 74.742188 270.828125 C 74.742188 270.828125 76.296875 270.5 79.023438 269.917969 C 81.746094 269.335938 85.613281 268.398438 90.234375 267.242188 C 92.542969 266.65625 95.039062 266 97.667969 265.269531 C 100.296875 264.539062 103.046875 263.703125 105.898438 262.871094 C 108.742188 262.007812 111.667969 261.074219 114.621094 260.078125 C 117.558594 259.070312 120.515625 258 123.496094 256.835938 C 126.464844 255.695312 129.667969 254.683594 132.820312 254.0625 C 135.988281 253.425781 139.171875 253.097656 142.257812 253.054688 C 148.441406 252.945312 154.152344 254.121094 158.835938 255.578125 C 163.539062 257.039062 167.203125 258.925781 169.695312 260.339844 C 170.945312 261.046875 171.886719 261.679688 172.53125 262.121094 C 172.855469 262.347656 173.101562 262.523438 173.265625 262.640625 C 173.4375 262.769531 173.527344 262.835938 173.527344 262.835938 C 174.164062 263.320312 174.332031 264.222656 173.886719 264.902344 C 173.425781 265.609375 172.476562 265.808594 171.769531 265.339844 L 171.707031 265.300781 C 171.707031 265.300781 171.398438 265.101562 170.820312 264.71875 C 170.21875 264.339844 169.304688 263.808594 168.125 263.160156 C 165.761719 261.863281 162.226562 260.246094 157.808594 258.863281 C 153.394531 257.464844 148.039062 256.503906 142.273438 256.460938 C 139.390625 256.441406 136.410156 256.691406 133.429688 257.234375 C 130.417969 257.765625 127.519531 258.640625 124.515625 259.6875 C 121.519531 260.714844 118.449219 261.691406 115.417969 262.59375 C 112.394531 263.484375 109.40625 264.300781 106.507812 265.054688 C 103.609375 265.804688 100.78125 266.425781 98.097656 267.007812 Z M 98.097656 267.007812 " fill-opacity="1" fill-rule="nonzero"/><path fill="#ffffff" d="M 263.347656 268.820312 C 263.347656 268.820312 233.296875 260.683594 212.144531 266.808594 C 212.144531 266.808594 229.851562 256.089844 263.347656 268.820312 Z M 263.347656 268.820312 " fill-opacity="1" fill-rule="nonzero"/><path fill="#ffffff" d="M 164.738281 266.808594 C 143.585938 260.683594 113.535156 268.820312 113.535156 268.820312 C 147.035156 256.089844 164.738281 266.808594 164.738281 266.808594 Z M 164.738281 266.808594 " fill-opacity="1" fill-rule="nonzero"/><path fill="#ffffff" d="M 100.511719 218.546875 C 127.984375 206.945312 162.121094 208.125 178.585938 213.121094 C 179.757812 214.449219 180.96875 215.828125 182.21875 217.261719 C 182.21875 217.261719 138.390625 202.78125 84.574219 229.6875 C 79.347656 232.296875 74.605469 234.574219 70.292969 236.566406 L 75.363281 226.101562 C 83.042969 224.640625 91.652344 222.292969 100.511719 218.546875 Z M 100.511719 218.546875 " fill-opacity="1" fill-rule="nonzero"/><path fill="#ffffff" d="M 66.390625 99.3125 C 60.90625 95.554688 53.367188 88.972656 46.476562 82.609375 C 42.90625 55.914062 48.289062 34.628906 48.289062 34.628906 C 63.25 98.832031 109.59375 144.691406 133.003906 163.753906 C 156.414062 182.824219 196.238281 223.367188 196.238281 223.367188 L 182.21875 217.265625 C 154.726562 185.71875 147 180.890625 130.855469 177.382812 C 119.855469 174.992188 108.8125 177.738281 99.699219 171.71875 C 93.742188 167.78125 87.703125 163.640625 81.382812 157.027344 L 102.835938 163.996094 C 100.566406 163.089844 85.316406 154.695312 74.246094 148.554688 C 68.347656 140.683594 62.160156 130.136719 55.53125 115.242188 C 51.335938 105.820312 48.730469 96.316406 47.195312 87.304688 C 59.433594 95.207031 74.65625 104.976562 66.390625 99.3125 Z M 66.390625 99.3125 " fill-opacity="1" fill-rule="nonzero"/><g clip-path="url(#a0abf06e1f)"><path fill="#ffffff" d="M 48.046875 24.492188 C 59.503906 68.59375 98.40625 112.578125 118.496094 132.949219 C 123.800781 138.332031 140.246094 156.8125 144.601562 171.777344 C 141.273438 168.847656 138.097656 166.132812 135.175781 163.75 C 112.015625 144.890625 62.289062 91.585938 48.046875 24.492188 Z M 48.046875 24.492188 " fill-opacity="1" fill-rule="nonzero"/></g><g fill="#ffffff" fill-opacity="1"><g transform="translate(183.408348, 156.78609)"><g><path d="M 19.296875 -7.15625 C 19.296875 -5.675781 18.921875 -4.347656 18.171875 -3.171875 C 17.429688 -2.003906 16.410156 -1.082031 15.109375 -0.40625 C 13.804688 0.257812 12.300781 0.59375 10.59375 0.59375 C 7.820312 0.59375 5.632812 -0.125 4.03125 -1.5625 C 2.425781 -3.007812 1.625 -4.875 1.625 -7.15625 C 1.625 -8.675781 1.984375 -10.25 2.703125 -11.875 C 2.816406 -12.101562 2.953125 -12.285156 3.109375 -12.421875 C 3.265625 -12.566406 3.484375 -12.613281 3.765625 -12.5625 C 4.171875 -12.507812 4.660156 -12.4375 5.234375 -12.34375 C 5.804688 -12.257812 6.289062 -12.191406 6.6875 -12.140625 C 6.945312 -12.109375 7.078125 -11.9375 7.078125 -11.625 C 7.078125 -11.363281 6.976562 -11.144531 6.78125 -10.96875 C 5.832031 -10.195312 5.144531 -9.382812 4.71875 -8.53125 C 4.289062 -7.675781 4.078125 -6.832031 4.078125 -6 C 4.078125 -5.03125 4.359375 -4.125 4.921875 -3.28125 C 5.492188 -2.4375 6.273438 -1.769531 7.265625 -1.28125 C 8.253906 -0.800781 9.390625 -0.5625 10.671875 -0.5625 C 12.503906 -0.5625 13.910156 -1.179688 14.890625 -2.421875 C 15.878906 -3.660156 16.273438 -5.226562 16.078125 -7.125 C 15.910156 -8.75 15.21875 -10.1875 14 -11.4375 C 12.78125 -12.695312 11.398438 -13.882812 9.859375 -15 C 8.773438 -15.832031 7.679688 -16.710938 6.578125 -17.640625 C 5.484375 -18.566406 4.554688 -19.582031 3.796875 -20.6875 C 3.035156 -21.789062 2.628906 -23 2.578125 -24.3125 C 2.546875 -25.570312 2.835938 -26.703125 3.453125 -27.703125 C 4.066406 -28.703125 4.957031 -29.492188 6.125 -30.078125 C 7.300781 -30.660156 8.660156 -30.953125 10.203125 -30.953125 C 11.742188 -30.953125 13.097656 -30.679688 14.265625 -30.140625 C 15.441406 -29.597656 16.34375 -28.847656 16.96875 -27.890625 C 17.601562 -26.929688 17.878906 -25.820312 17.796875 -24.5625 C 17.765625 -23.9375 17.679688 -23.363281 17.546875 -22.84375 C 17.421875 -22.332031 17.203125 -21.707031 16.890625 -20.96875 C 16.691406 -20.507812 16.394531 -20.320312 16 -20.40625 C 15.625 -20.46875 15.195312 -20.53125 14.71875 -20.59375 C 14.25 -20.664062 13.84375 -20.71875 13.5 -20.75 C 13.269531 -20.8125 13.15625 -20.957031 13.15625 -21.1875 C 13.15625 -21.4375 13.242188 -21.617188 13.421875 -21.734375 C 14.078125 -22.253906 14.597656 -22.773438 14.984375 -23.296875 C 15.367188 -23.828125 15.578125 -24.476562 15.609375 -25.25 C 15.660156 -26.625 15.175781 -27.738281 14.15625 -28.59375 C 13.144531 -29.457031 11.800781 -29.859375 10.125 -29.796875 C 8.550781 -29.765625 7.3125 -29.226562 6.40625 -28.1875 C 5.507812 -27.144531 5.144531 -25.820312 5.3125 -24.21875 C 5.425781 -23.3125 5.78125 -22.460938 6.375 -21.671875 C 6.976562 -20.890625 7.71875 -20.160156 8.59375 -19.484375 C 9.46875 -18.816406 10.332031 -18.164062 11.1875 -17.53125 C 12.5 -16.613281 13.773438 -15.648438 15.015625 -14.640625 C 16.265625 -13.628906 17.296875 -12.515625 18.109375 -11.296875 C 18.929688 -10.078125 19.328125 -8.695312 19.296875 -7.15625 Z M 19.296875 -7.15625 "/></g></g></g><g fill="#ffffff" fill-opacity="1"><g transform="translate(204.331601, 156.78609)"><g><path d="M 13.640625 -0.34375 C 13.640625 -0.113281 13.523438 0 13.296875 0 L 8.140625 0 C 7.941406 0 7.84375 -0.113281 7.84375 -0.34375 C 7.84375 -0.457031 7.847656 -0.570312 7.859375 -0.6875 C 7.878906 -0.800781 7.90625 -0.914062 7.9375 -1.03125 L 8.40625 -2.578125 C 8.71875 -3.628906 8.988281 -4.804688 9.21875 -6.109375 C 9.445312 -7.410156 9.585938 -8.644531 9.640625 -9.8125 L 9.640625 -26.875 C 9.617188 -27.625 9.378906 -28.226562 8.921875 -28.6875 C 8.460938 -29.144531 7.832031 -29.375 7.03125 -29.375 C 6.289062 -29.375 5.640625 -29.144531 5.078125 -28.6875 C 4.523438 -28.226562 4.175781 -27.625 4.03125 -26.875 L 3.296875 -23.0625 C 3.242188 -22.78125 3.070312 -22.640625 2.78125 -22.640625 L 1.546875 -22.640625 C 1.253906 -22.640625 1.109375 -22.78125 1.109375 -23.0625 L 1.28125 -29.796875 C 1.28125 -30.085938 1.425781 -30.234375 1.71875 -30.234375 L 19.671875 -30.234375 C 19.960938 -30.234375 20.109375 -30.085938 20.109375 -29.796875 L 20.28125 -23.0625 C 20.28125 -22.78125 20.132812 -22.640625 19.84375 -22.640625 L 18.609375 -22.640625 C 18.316406 -22.640625 18.144531 -22.78125 18.09375 -23.0625 L 17.359375 -26.875 C 17.222656 -27.625 16.875 -28.226562 16.3125 -28.6875 C 15.757812 -29.144531 15.09375 -29.375 14.3125 -29.375 C 13.570312 -29.375 12.972656 -29.148438 12.515625 -28.703125 C 12.054688 -28.265625 11.816406 -27.671875 11.796875 -26.921875 L 11.796875 -10.96875 C 11.796875 -9.6875 11.914062 -8.28125 12.15625 -6.75 C 12.394531 -5.21875 12.703125 -3.828125 13.078125 -2.578125 L 13.546875 -1.03125 C 13.578125 -0.914062 13.597656 -0.800781 13.609375 -0.6875 C 13.628906 -0.570312 13.640625 -0.457031 13.640625 -0.34375 Z M 13.640625 -0.34375 "/></g></g></g><g fill="#ffffff" fill-opacity="1"><g transform="translate(225.726488, 156.78609)"><g><path d="M 18.5625 -6.21875 C 18.5625 -4.070312 17.867188 -2.398438 16.484375 -1.203125 C 15.097656 -0.00390625 13.289062 0.59375 11.0625 0.59375 C 8.800781 0.59375 7.015625 -0.00390625 5.703125 -1.203125 C 4.390625 -2.398438 3.734375 -4.070312 3.734375 -6.21875 L 3.765625 -19.890625 C 3.765625 -21.085938 3.648438 -22.414062 3.421875 -23.875 C 3.203125 -25.332031 2.90625 -26.632812 2.53125 -27.78125 L 2.015625 -29.28125 C 1.953125 -29.507812 1.921875 -29.710938 1.921875 -29.890625 C 1.921875 -30.117188 2.035156 -30.234375 2.265625 -30.234375 L 7.453125 -30.234375 C 7.660156 -30.234375 7.765625 -30.117188 7.765625 -29.890625 C 7.765625 -29.796875 7.765625 -29.691406 7.765625 -29.578125 C 7.765625 -29.460938 7.75 -29.347656 7.71875 -29.234375 L 7.25 -27.78125 C 6.90625 -26.75 6.625 -25.585938 6.40625 -24.296875 C 6.195312 -23.015625 6.0625 -21.804688 6 -20.671875 L 5.953125 -6.21875 C 5.953125 -4.382812 6.425781 -2.96875 7.375 -1.96875 C 8.320312 -0.96875 9.59375 -0.46875 11.1875 -0.46875 C 12.789062 -0.46875 14.054688 -0.96875 14.984375 -1.96875 C 15.910156 -2.96875 16.375 -4.382812 16.375 -6.21875 L 16.46875 -19.890625 C 16.46875 -21.085938 16.351562 -22.414062 16.125 -23.875 C 15.894531 -25.332031 15.578125 -26.632812 15.171875 -27.78125 L 14.703125 -29.28125 C 14.648438 -29.507812 14.625 -29.710938 14.625 -29.890625 C 14.625 -30.117188 14.738281 -30.234375 14.96875 -30.234375 L 20.0625 -30.234375 C 20.289062 -30.234375 20.40625 -30.117188 20.40625 -29.890625 C 20.40625 -29.742188 20.378906 -29.523438 20.328125 -29.234375 L 19.84375 -27.78125 C 19.507812 -26.75 19.234375 -25.585938 19.015625 -24.296875 C 18.796875 -23.015625 18.660156 -21.804688 18.609375 -20.671875 Z M 18.5625 -6.21875 "/></g></g></g><g fill="#ffffff" fill-opacity="1"><g transform="translate(248.107495, 156.78609)"><g><path d="M 1.71875 -29.890625 C 1.71875 -30.117188 1.832031 -30.234375 2.0625 -30.234375 L 7.765625 -30.234375 C 7.878906 -30.234375 8 -30.234375 8.125 -30.234375 C 8.25 -30.234375 8.367188 -30.234375 8.484375 -30.234375 C 11.691406 -30.234375 14.492188 -29.59375 16.890625 -28.3125 C 19.296875 -27.039062 21.175781 -25.269531 22.53125 -23 C 23.882812 -20.726562 24.5625 -18.09375 24.5625 -15.09375 C 24.5625 -12.09375 23.890625 -9.453125 22.546875 -7.171875 C 21.203125 -4.898438 19.320312 -3.132812 16.90625 -1.875 C 14.5 -0.625 11.691406 0 8.484375 0 C 8.367188 0 8.25 0 8.125 0 C 8 0 7.878906 0 7.765625 0 L 2.0625 0 C 1.832031 0 1.71875 -0.113281 1.71875 -0.34375 C 1.71875 -0.457031 1.722656 -0.570312 1.734375 -0.6875 C 1.753906 -0.800781 1.773438 -0.914062 1.796875 -1.03125 L 2.3125 -2.578125 C 2.6875 -3.804688 2.988281 -5.191406 3.21875 -6.734375 C 3.445312 -8.273438 3.5625 -9.6875 3.5625 -10.96875 L 3.5625 -19.25 C 3.5625 -20.539062 3.445312 -21.957031 3.21875 -23.5 C 2.988281 -25.039062 2.6875 -26.425781 2.3125 -27.65625 L 1.796875 -29.203125 C 1.773438 -29.316406 1.753906 -29.429688 1.734375 -29.546875 C 1.722656 -29.660156 1.71875 -29.773438 1.71875 -29.890625 Z M 7.71875 -1.03125 C 10.457031 -0.914062 12.863281 -1.421875 14.9375 -2.546875 C 17.007812 -3.679688 18.628906 -5.316406 19.796875 -7.453125 C 20.972656 -9.597656 21.5625 -12.101562 21.5625 -14.96875 C 21.59375 -17.851562 21.035156 -20.378906 19.890625 -22.546875 C 18.742188 -24.722656 17.140625 -26.394531 15.078125 -27.5625 C 13.023438 -28.738281 10.628906 -29.269531 7.890625 -29.15625 C 7.515625 -29.15625 7.195312 -28.894531 6.9375 -28.375 C 6.6875 -27.863281 6.484375 -27.207031 6.328125 -26.40625 C 6.171875 -25.601562 6.046875 -24.78125 5.953125 -23.9375 C 5.867188 -23.101562 5.804688 -22.347656 5.765625 -21.671875 C 5.722656 -21.003906 5.703125 -20.554688 5.703125 -20.328125 C 5.703125 -18.578125 5.703125 -16.882812 5.703125 -15.25 C 5.703125 -13.625 5.703125 -11.925781 5.703125 -10.15625 C 5.703125 -9.925781 5.710938 -9.46875 5.734375 -8.78125 C 5.765625 -8.101562 5.820312 -7.328125 5.90625 -6.453125 C 6 -5.578125 6.125 -4.722656 6.28125 -3.890625 C 6.4375 -3.066406 6.628906 -2.382812 6.859375 -1.84375 C 7.085938 -1.300781 7.375 -1.03125 7.71875 -1.03125 Z M 7.71875 -1.03125 "/></g></g></g><g fill="#ffffff" fill-opacity="1"><g transform="translate(274.175804, 156.78609)"><g><path d="M 11.40625 -0.34375 C 11.40625 -0.113281 11.289062 0 11.0625 0 L 5.953125 0 C 5.722656 0 5.609375 -0.113281 5.609375 -0.34375 C 5.609375 -0.457031 5.613281 -0.570312 5.625 -0.6875 C 5.644531 -0.800781 5.671875 -0.914062 5.703125 -1.03125 L 6.171875 -2.578125 C 6.578125 -3.804688 6.890625 -5.191406 7.109375 -6.734375 C 7.335938 -8.273438 7.453125 -9.6875 7.453125 -10.96875 L 7.453125 -11.75 L 4.84375 -19.46875 C 4.445312 -20.695312 3.960938 -22.046875 3.390625 -23.515625 C 2.816406 -24.984375 2.273438 -26.304688 1.765625 -27.484375 L 0.984375 -29.234375 C 0.898438 -29.410156 0.859375 -29.628906 0.859375 -29.890625 C 0.859375 -30.117188 0.972656 -30.234375 1.203125 -30.234375 L 6.34375 -30.234375 C 6.570312 -30.234375 6.6875 -30.117188 6.6875 -29.890625 C 6.6875 -29.773438 6.675781 -29.660156 6.65625 -29.546875 C 6.644531 -29.429688 6.628906 -29.316406 6.609375 -29.203125 L 6.46875 -28.296875 C 6.21875 -26.898438 6.15625 -25.347656 6.28125 -23.640625 C 6.40625 -21.941406 6.695312 -20.421875 7.15625 -19.078125 L 9.09375 -13.203125 L 11.0625 -19.078125 C 11.519531 -20.421875 11.804688 -21.941406 11.921875 -23.640625 C 12.035156 -25.347656 11.976562 -26.898438 11.75 -28.296875 L 11.578125 -29.203125 C 11.546875 -29.316406 11.53125 -29.429688 11.53125 -29.546875 C 11.53125 -29.660156 11.53125 -29.773438 11.53125 -29.890625 C 11.53125 -30.117188 11.644531 -30.234375 11.875 -30.234375 L 15.828125 -30.234375 C 16.046875 -30.234375 16.15625 -30.117188 16.15625 -29.890625 C 16.15625 -29.628906 16.113281 -29.410156 16.03125 -29.234375 L 15.265625 -27.484375 C 14.742188 -26.304688 14.195312 -24.984375 13.625 -23.515625 C 13.0625 -22.046875 12.578125 -20.695312 12.171875 -19.46875 L 9.609375 -11.75 L 9.609375 -10.125 C 9.660156 -8.894531 9.789062 -7.597656 10 -6.234375 C 10.21875 -4.878906 10.5 -3.660156 10.84375 -2.578125 L 11.3125 -1.03125 C 11.34375 -0.914062 11.363281 -0.800781 11.375 -0.6875 C 11.394531 -0.570312 11.40625 -0.457031 11.40625 -0.34375 Z M 11.40625 -0.34375 "/></g></g></g><g fill="#ffffff" fill-opacity="1"><g transform="translate(190.479464, 216.513691)"><g><path d="M 19.296875 -7.15625 C 19.296875 -5.675781 18.921875 -4.347656 18.171875 -3.171875 C 17.429688 -2.003906 16.410156 -1.082031 15.109375 -0.40625 C 13.804688 0.257812 12.300781 0.59375 10.59375 0.59375 C 7.820312 0.59375 5.632812 -0.125 4.03125 -1.5625 C 2.425781 -3.007812 1.625 -4.875 1.625 -7.15625 C 1.625 -8.675781 1.984375 -10.25 2.703125 -11.875 C 2.816406 -12.101562 2.953125 -12.285156 3.109375 -12.421875 C 3.265625 -12.566406 3.484375 -12.613281 3.765625 -12.5625 C 4.171875 -12.507812 4.660156 -12.4375 5.234375 -12.34375 C 5.804688 -12.257812 6.289062 -12.191406 6.6875 -12.140625 C 6.945312 -12.109375 7.078125 -11.9375 7.078125 -11.625 C 7.078125 -11.363281 6.976562 -11.144531 6.78125 -10.96875 C 5.832031 -10.195312 5.144531 -9.382812 4.71875 -8.53125 C 4.289062 -7.675781 4.078125 -6.832031 4.078125 -6 C 4.078125 -5.03125 4.359375 -4.125 4.921875 -3.28125 C 5.492188 -2.4375 6.273438 -1.769531 7.265625 -1.28125 C 8.253906 -0.800781 9.390625 -0.5625 10.671875 -0.5625 C 12.503906 -0.5625 13.910156 -1.179688 14.890625 -2.421875 C 15.878906 -3.660156 16.273438 -5.226562 16.078125 -7.125 C 15.910156 -8.75 15.21875 -10.1875 14 -11.4375 C 12.78125 -12.695312 11.398438 -13.882812 9.859375 -15 C 8.773438 -15.832031 7.679688 -16.710938 6.578125 -17.640625 C 5.484375 -18.566406 4.554688 -19.582031 3.796875 -20.6875 C 3.035156 -21.789062 2.628906 -23 2.578125 -24.3125 C 2.546875 -25.570312 2.835938 -26.703125 3.453125 -27.703125 C 4.066406 -28.703125 4.957031 -29.492188 6.125 -30.078125 C 7.300781 -30.660156 8.660156 -30.953125 10.203125 -30.953125 C 11.742188 -30.953125 13.097656 -30.679688 14.265625 -30.140625 C 15.441406 -29.597656 16.34375 -28.847656 16.96875 -27.890625 C 17.601562 -26.929688 17.878906 -25.820312 17.796875 -24.5625 C 17.765625 -23.9375 17.679688 -23.363281 17.546875 -22.84375 C 17.421875 -22.332031 17.203125 -21.707031 16.890625 -20.96875 C 16.691406 -20.507812 16.394531 -20.320312 16 -20.40625 C 15.625 -20.46875 15.195312 -20.53125 14.71875 -20.59375 C 14.25 -20.664062 13.84375 -20.71875 13.5 -20.75 C 13.269531 -20.8125 13.15625 -20.957031 13.15625 -21.1875 C 13.15625 -21.4375 13.242188 -21.617188 13.421875 -21.734375 C 14.078125 -22.253906 14.597656 -22.773438 14.984375 -23.296875 C 15.367188 -23.828125 15.578125 -24.476562 15.609375 -25.25 C 15.660156 -26.625 15.175781 -27.738281 14.15625 -28.59375 C 13.144531 -29.457031 11.800781 -29.859375 10.125 -29.796875 C 8.550781 -29.765625 7.3125 -29.226562 6.40625 -28.1875 C 5.507812 -27.144531 5.144531 -25.820312 5.3125 -24.21875 C 5.425781 -23.3125 5.78125 -22.460938 6.375 -21.671875 C 6.976562 -20.890625 7.71875 -20.160156 8.59375 -19.484375 C 9.46875 -18.816406 10.332031 -18.164062 11.1875 -17.53125 C 12.5 -16.613281 13.773438 -15.648438 15.015625 -14.640625 C 16.265625 -13.628906 17.296875 -12.515625 18.109375 -11.296875 C 18.929688 -10.078125 19.328125 -8.695312 19.296875 -7.15625 Z M 19.296875 -7.15625 "/></g></g></g><g fill="#ffffff" fill-opacity="1"><g transform="translate(211.402717, 216.513691)"><g><path d="M 5.65625 -0.34375 C 5.65625 -0.113281 5.539062 0 5.3125 0 L 1.421875 0 C 1.191406 0 1.078125 -0.113281 1.078125 -0.34375 C 1.078125 -0.601562 1.117188 -0.832031 1.203125 -1.03125 L 1.84375 -2.703125 C 2.300781 -3.898438 2.742188 -5.25 3.171875 -6.75 C 3.597656 -8.25 3.941406 -9.613281 4.203125 -10.84375 L 8.109375 -30.390625 C 8.109375 -30.597656 8.222656 -30.703125 8.453125 -30.703125 L 13.421875 -30.703125 C 13.734375 -30.703125 13.847656 -30.554688 13.765625 -30.265625 L 13.15625 -28 C 12.8125 -26.769531 12.640625 -25.390625 12.640625 -23.859375 C 12.640625 -22.328125 12.800781 -20.929688 13.125 -19.671875 L 15.4375 -10.84375 C 15.75 -9.613281 16.125 -8.234375 16.5625 -6.703125 C 17.007812 -5.179688 17.421875 -3.804688 17.796875 -2.578125 L 18.265625 -1.03125 C 18.347656 -0.832031 18.390625 -0.601562 18.390625 -0.34375 C 18.390625 -0.113281 18.273438 0 18.046875 0 L 12.90625 0 C 12.675781 0 12.5625 -0.113281 12.5625 -0.34375 C 12.5625 -0.457031 12.566406 -0.570312 12.578125 -0.6875 C 12.597656 -0.800781 12.617188 -0.914062 12.640625 -1.03125 L 13.125 -2.53125 C 13.488281 -3.695312 13.691406 -4.976562 13.734375 -6.375 C 13.785156 -7.78125 13.679688 -9.085938 13.421875 -10.296875 L 4.96875 -10.296875 C 4.769531 -9.066406 4.691406 -7.75 4.734375 -6.34375 C 4.773438 -4.945312 4.941406 -3.660156 5.234375 -2.484375 L 5.578125 -1.03125 C 5.597656 -0.914062 5.613281 -0.800781 5.625 -0.6875 C 5.644531 -0.570312 5.65625 -0.457031 5.65625 -0.34375 Z M 8.625 -28.515625 L 5.140625 -11.140625 L 13.203125 -11.140625 L 10.96875 -19.71875 C 10.65625 -20.976562 10.289062 -22.375 9.875 -23.90625 C 9.46875 -25.4375 9.09375 -26.816406 8.75 -28.046875 Z M 8.625 -28.515625 "/></g></g></g><g fill="#ffffff" fill-opacity="1"><g transform="translate(230.825326, 216.513691)"><g><path d="M 29.5 -4.96875 C 28.207031 -3.226562 26.609375 -1.863281 24.703125 -0.875 C 22.804688 0.101562 20.488281 0.59375 17.75 0.59375 C 14.550781 0.59375 11.726562 -0.0625 9.28125 -1.375 C 6.832031 -2.6875 4.921875 -4.519531 3.546875 -6.875 C 2.179688 -9.238281 1.5 -11.976562 1.5 -15.09375 C 1.5 -18.207031 2.175781 -20.941406 3.53125 -23.296875 C 4.894531 -25.660156 6.796875 -27.503906 9.234375 -28.828125 C 11.679688 -30.160156 14.503906 -30.828125 17.703125 -30.828125 C 19.535156 -30.828125 21.300781 -30.566406 23 -30.046875 C 24.695312 -29.535156 26.203125 -28.851562 27.515625 -28 C 28.835938 -27.144531 29.851562 -26.171875 30.5625 -25.078125 C 30.789062 -24.734375 30.789062 -24.378906 30.5625 -24.015625 L 29.0625 -21.609375 C 28.726562 -21.066406 28.445312 -21.109375 28.21875 -21.734375 C 27.695312 -23.273438 26.859375 -24.628906 25.703125 -25.796875 C 24.546875 -26.972656 23.203125 -27.890625 21.671875 -28.546875 C 20.140625 -29.210938 18.546875 -29.546875 16.890625 -29.546875 C 15.742188 -29.546875 14.6875 -29.398438 13.71875 -29.109375 C 11.226562 -28.398438 9.191406 -27.1875 7.609375 -25.46875 C 6.023438 -23.75 4.992188 -21.6875 4.515625 -19.28125 C 4.046875 -16.882812 4.195312 -14.300781 4.96875 -11.53125 C 5.625 -9.25 6.582031 -7.285156 7.84375 -5.640625 C 9.101562 -3.992188 10.585938 -2.734375 12.296875 -1.859375 C 14.015625 -0.992188 15.863281 -0.5625 17.84375 -0.5625 C 20.382812 -0.5625 22.585938 -1.164062 24.453125 -2.375 C 26.328125 -3.59375 27.765625 -5.390625 28.765625 -7.765625 C 28.765625 -7.785156 28.765625 -7.796875 28.765625 -7.796875 C 28.765625 -7.796875 28.765625 -7.8125 28.765625 -7.84375 L 28.859375 -8.0625 C 29.140625 -8.800781 29.171875 -9.535156 28.953125 -10.265625 C 28.742188 -10.992188 28.328125 -11.585938 27.703125 -12.046875 L 25.078125 -14.0625 C 24.910156 -14.207031 24.828125 -14.394531 24.828125 -14.625 C 24.828125 -14.851562 24.941406 -14.96875 25.171875 -14.96875 L 32.078125 -14.96875 C 32.296875 -14.96875 32.40625 -14.851562 32.40625 -14.625 C 32.40625 -14.507812 32.40625 -14.394531 32.40625 -14.28125 C 32.40625 -14.164062 32.394531 -14.050781 32.375 -13.9375 L 31.734375 -8.28125 L 31.734375 -0.640625 C 31.734375 -0.210938 31.53125 -0.0703125 31.125 -0.21875 L 30.015625 -0.640625 C 29.722656 -0.722656 29.578125 -0.910156 29.578125 -1.203125 Z M 29.5 -4.96875 "/></g></g></g><g fill="#ffffff" fill-opacity="1"><g transform="translate(264.739855, 216.513691)"><g><path d="M 16.640625 -0.421875 C 16.578125 -0.140625 16.414062 0 16.15625 0 L 2.0625 0 C 1.832031 0 1.71875 -0.113281 1.71875 -0.34375 C 1.71875 -0.457031 1.722656 -0.570312 1.734375 -0.6875 C 1.753906 -0.800781 1.773438 -0.914062 1.796875 -1.03125 L 2.3125 -2.578125 C 2.6875 -3.804688 2.988281 -5.191406 3.21875 -6.734375 C 3.445312 -8.273438 3.5625 -9.6875 3.5625 -10.96875 L 3.5625 -19.25 C 3.5625 -20.539062 3.445312 -21.957031 3.21875 -23.5 C 2.988281 -25.039062 2.6875 -26.425781 2.3125 -27.65625 L 1.796875 -29.203125 C 1.773438 -29.316406 1.753906 -29.429688 1.734375 -29.546875 C 1.722656 -29.660156 1.71875 -29.773438 1.71875 -29.890625 C 1.71875 -30.117188 1.832031 -30.234375 2.0625 -30.234375 L 15.734375 -30.234375 C 15.992188 -30.234375 16.148438 -30.085938 16.203125 -29.796875 L 17.109375 -23.0625 C 17.160156 -22.78125 17.046875 -22.640625 16.765625 -22.640625 L 15.90625 -22.640625 C 15.625 -22.640625 15.453125 -22.78125 15.390625 -23.0625 L 14.828125 -25.203125 C 14.515625 -26.460938 13.863281 -27.472656 12.875 -28.234375 C 11.894531 -28.992188 10.757812 -29.375 9.46875 -29.375 L 8.828125 -29.375 C 7.941406 -29.34375 7.210938 -29.054688 6.640625 -28.515625 C 6.066406 -27.972656 5.753906 -27.242188 5.703125 -26.328125 L 5.703125 -18.78125 L 8.921875 -18.78125 C 9.578125 -18.78125 10.125 -18.976562 10.5625 -19.375 C 11.007812 -19.78125 11.273438 -20.296875 11.359375 -20.921875 L 11.484375 -21.828125 C 11.546875 -22.109375 11.707031 -22.25 11.96875 -22.25 L 12.265625 -22.25 C 12.515625 -22.25 12.640625 -22.109375 12.640625 -21.828125 L 11.875 -14.875 C 11.820312 -14.59375 11.664062 -14.453125 11.40625 -14.453125 L 11.109375 -14.453125 C 10.847656 -14.453125 10.71875 -14.59375 10.71875 -14.875 L 10.84375 -15.78125 C 10.90625 -16.4375 10.765625 -16.957031 10.421875 -17.34375 C 10.078125 -17.726562 9.578125 -17.921875 8.921875 -17.921875 L 5.703125 -17.921875 L 5.703125 -3.90625 C 5.753906 -3.019531 6.066406 -2.296875 6.640625 -1.734375 C 7.210938 -1.179688 7.941406 -0.890625 8.828125 -0.859375 L 9.90625 -0.859375 C 11.1875 -0.859375 12.320312 -1.242188 13.3125 -2.015625 C 14.300781 -2.785156 14.953125 -3.785156 15.265625 -5.015625 L 15.828125 -7.15625 C 15.878906 -7.445312 16.046875 -7.59375 16.328125 -7.59375 L 17.15625 -7.59375 C 17.46875 -7.59375 17.59375 -7.445312 17.53125 -7.15625 Z M 16.640625 -0.421875 "/></g></g></g><g fill="#ffffff" fill-opacity="1"><g transform="translate(59.415469, 318.830487)"><g><path d="M 4.671875 -0.140625 C 4.671875 -0.046875 4.625 0 4.53125 0 L 2.4375 0 C 2.34375 0 2.296875 -0.046875 2.296875 -0.140625 C 2.296875 -0.179688 2.296875 -0.222656 2.296875 -0.265625 C 2.304688 -0.316406 2.316406 -0.367188 2.328125 -0.421875 L 2.53125 -1.046875 C 2.695312 -1.554688 2.828125 -2.125 2.921875 -2.75 C 3.015625 -3.382812 3.0625 -3.96875 3.0625 -4.5 L 3.0625 -4.8125 L 1.984375 -7.96875 C 1.816406 -8.476562 1.613281 -9.03125 1.375 -9.625 C 1.144531 -10.226562 0.925781 -10.769531 0.71875 -11.25 L 0.40625 -11.984375 C 0.363281 -12.046875 0.34375 -12.128906 0.34375 -12.234375 C 0.34375 -12.328125 0.390625 -12.375 0.484375 -12.375 L 2.59375 -12.375 C 2.6875 -12.375 2.734375 -12.328125 2.734375 -12.234375 C 2.734375 -12.191406 2.726562 -12.144531 2.71875 -12.09375 C 2.71875 -12.050781 2.710938 -12.003906 2.703125 -11.953125 L 2.65625 -11.59375 C 2.550781 -11.019531 2.523438 -10.382812 2.578125 -9.6875 C 2.628906 -8.988281 2.75 -8.363281 2.9375 -7.8125 L 3.71875 -5.40625 L 4.53125 -7.8125 C 4.71875 -8.363281 4.832031 -8.988281 4.875 -9.6875 C 4.925781 -10.382812 4.90625 -11.019531 4.8125 -11.59375 L 4.734375 -11.953125 C 4.722656 -12.003906 4.71875 -12.050781 4.71875 -12.09375 C 4.71875 -12.144531 4.71875 -12.191406 4.71875 -12.234375 C 4.71875 -12.328125 4.765625 -12.375 4.859375 -12.375 L 6.484375 -12.375 C 6.578125 -12.375 6.625 -12.328125 6.625 -12.234375 C 6.625 -12.128906 6.601562 -12.046875 6.5625 -11.984375 L 6.25 -11.25 C 6.039062 -10.769531 5.816406 -10.226562 5.578125 -9.625 C 5.347656 -9.03125 5.148438 -8.476562 4.984375 -7.96875 L 3.9375 -4.8125 L 3.9375 -4.140625 C 3.957031 -3.640625 4.007812 -3.109375 4.09375 -2.546875 C 4.1875 -1.992188 4.300781 -1.492188 4.4375 -1.046875 L 4.640625 -0.421875 C 4.648438 -0.367188 4.65625 -0.316406 4.65625 -0.265625 C 4.664062 -0.222656 4.671875 -0.179688 4.671875 -0.140625 Z M 4.671875 -0.140625 "/></g></g></g><g fill="#ffffff" fill-opacity="1"><g transform="translate(71.338369, 318.830487)"><g><path d="M 11.890625 -4.984375 C 11.890625 -3.953125 11.65625 -3.046875 11.1875 -2.265625 C 10.71875 -1.492188 10.054688 -0.890625 9.203125 -0.453125 C 8.359375 -0.0234375 7.375 0.1875 6.25 0.1875 C 5.132812 0.1875 4.148438 -0.0234375 3.296875 -0.453125 C 2.453125 -0.890625 1.789062 -1.492188 1.3125 -2.265625 C 0.84375 -3.046875 0.609375 -3.953125 0.609375 -4.984375 C 0.609375 -6.015625 0.84375 -6.921875 1.3125 -7.703125 C 1.789062 -8.492188 2.453125 -9.109375 3.296875 -9.546875 C 4.148438 -9.984375 5.132812 -10.203125 6.25 -10.203125 C 7.375 -10.203125 8.359375 -9.984375 9.203125 -9.546875 C 10.054688 -9.109375 10.71875 -8.5 11.1875 -7.71875 C 11.65625 -6.9375 11.890625 -6.023438 11.890625 -4.984375 Z M 1.84375 -3.8125 C 2.1875 -2.675781 2.757812 -1.785156 3.5625 -1.140625 C 4.363281 -0.503906 5.28125 -0.1875 6.3125 -0.1875 C 6.757812 -0.1875 7.203125 -0.25 7.640625 -0.375 C 8.515625 -0.601562 9.222656 -1 9.765625 -1.5625 C 10.316406 -2.125 10.671875 -2.800781 10.828125 -3.59375 C 10.992188 -4.394531 10.9375 -5.253906 10.65625 -6.171875 C 10.320312 -7.316406 9.753906 -8.207031 8.953125 -8.84375 C 8.148438 -9.476562 7.234375 -9.796875 6.203125 -9.796875 C 5.742188 -9.796875 5.296875 -9.738281 4.859375 -9.625 C 3.984375 -9.382812 3.273438 -8.976562 2.734375 -8.40625 C 2.191406 -7.84375 1.835938 -7.164062 1.671875 -6.375 C 1.515625 -5.59375 1.570312 -4.738281 1.84375 -3.8125 Z M 1.84375 -3.8125 "/></g></g></g><g fill="#ffffff" fill-opacity="1"><g transform="translate(88.791008, 318.830487)"><g><path d="M 6.921875 -2.0625 C 6.921875 -1.351562 6.664062 -0.800781 6.15625 -0.40625 C 5.644531 -0.0078125 4.972656 0.1875 4.140625 0.1875 C 3.304688 0.1875 2.648438 -0.0078125 2.171875 -0.40625 C 1.691406 -0.800781 1.453125 -1.351562 1.453125 -2.0625 L 1.46875 -6.5625 C 1.46875 -6.976562 1.425781 -7.425781 1.34375 -7.90625 C 1.257812 -8.382812 1.144531 -8.816406 1 -9.203125 L 0.828125 -9.671875 C 0.816406 -9.710938 0.804688 -9.75 0.796875 -9.78125 C 0.796875 -9.8125 0.796875 -9.847656 0.796875 -9.890625 C 0.796875 -9.960938 0.832031 -10 0.90625 -10 L 2.84375 -10 C 2.914062 -10 2.953125 -9.960938 2.953125 -9.890625 C 2.953125 -9.847656 2.953125 -9.8125 2.953125 -9.78125 C 2.953125 -9.75 2.945312 -9.710938 2.9375 -9.671875 L 2.75 -9.203125 C 2.625 -8.859375 2.519531 -8.472656 2.4375 -8.046875 C 2.351562 -7.617188 2.300781 -7.21875 2.28125 -6.84375 L 2.28125 -2.09375 C 2.28125 -1.488281 2.453125 -1.019531 2.796875 -0.6875 C 3.140625 -0.363281 3.613281 -0.203125 4.21875 -0.203125 C 4.800781 -0.203125 5.257812 -0.363281 5.59375 -0.6875 C 5.9375 -1.019531 6.113281 -1.488281 6.125 -2.09375 L 6.140625 -6.578125 C 6.140625 -6.992188 6.097656 -7.4375 6.015625 -7.90625 C 5.929688 -8.382812 5.816406 -8.816406 5.671875 -9.203125 L 5.5 -9.671875 C 5.488281 -9.710938 5.476562 -9.75 5.46875 -9.78125 C 5.46875 -9.8125 5.46875 -9.847656 5.46875 -9.890625 C 5.46875 -9.960938 5.503906 -10 5.578125 -10 L 7.484375 -10 C 7.566406 -10 7.609375 -9.960938 7.609375 -9.890625 C 7.609375 -9.847656 7.601562 -9.8125 7.59375 -9.78125 C 7.59375 -9.75 7.582031 -9.710938 7.5625 -9.671875 L 7.390625 -9.203125 C 7.273438 -8.847656 7.175781 -8.457031 7.09375 -8.03125 C 7.007812 -7.601562 6.957031 -7.203125 6.9375 -6.828125 Z M 6.921875 -2.0625 "/></g></g></g><g fill="#ffffff" fill-opacity="1"><g transform="translate(102.135848, 318.830487)"><g><path d="M 2.84375 -0.109375 C 2.84375 -0.0351562 2.800781 0 2.71875 0 L 0.84375 0 C 0.75 0 0.703125 -0.0390625 0.703125 -0.125 C 0.703125 -0.195312 0.71875 -0.265625 0.75 -0.328125 L 0.9375 -0.84375 C 1.0625 -1.226562 1.164062 -1.65625 1.25 -2.125 C 1.332031 -2.601562 1.378906 -3.046875 1.390625 -3.453125 L 1.390625 -6.375 C 1.390625 -6.789062 1.34375 -7.253906 1.25 -7.765625 C 1.164062 -8.285156 1.050781 -8.75 0.90625 -9.15625 L 0.734375 -9.65625 C 0.710938 -9.75 0.703125 -9.828125 0.703125 -9.890625 C 0.703125 -9.960938 0.742188 -10 0.828125 -10 L 2.921875 -10 C 2.953125 -10 2.984375 -10 3.015625 -10 C 3.054688 -10 3.085938 -10 3.109375 -10 C 3.953125 -10 4.691406 -9.847656 5.328125 -9.546875 C 5.960938 -9.242188 6.457031 -8.820312 6.8125 -8.28125 C 7.175781 -7.75 7.359375 -7.125 7.359375 -6.40625 C 7.359375 -5.53125 7.085938 -4.785156 6.546875 -4.171875 C 6.015625 -3.566406 5.289062 -3.164062 4.375 -2.96875 C 4.507812 -2.957031 4.671875 -2.90625 4.859375 -2.8125 C 5.046875 -2.726562 5.253906 -2.578125 5.484375 -2.359375 L 7.484375 -0.390625 C 7.609375 -0.265625 7.648438 -0.164062 7.609375 -0.09375 C 7.566406 -0.03125 7.46875 0 7.3125 0 L 5.90625 0 C 5.800781 0 5.71875 -0.046875 5.65625 -0.140625 C 5.582031 -0.296875 5.46875 -0.519531 5.3125 -0.8125 C 5.15625 -1.113281 4.984375 -1.410156 4.796875 -1.703125 C 4.617188 -2.003906 4.460938 -2.222656 4.328125 -2.359375 C 4.140625 -2.523438 3.921875 -2.644531 3.671875 -2.71875 C 3.421875 -2.789062 3.1875 -2.832031 2.96875 -2.84375 C 2.851562 -2.84375 2.726562 -2.84375 2.59375 -2.84375 C 2.46875 -2.84375 2.34375 -2.84375 2.21875 -2.84375 C 2.28125 -2.113281 2.421875 -1.453125 2.640625 -0.859375 L 2.8125 -0.328125 C 2.832031 -0.304688 2.84375 -0.269531 2.84375 -0.21875 C 2.84375 -0.175781 2.84375 -0.140625 2.84375 -0.109375 Z M 2.171875 -3.640625 C 2.171875 -3.566406 2.171875 -3.488281 2.171875 -3.40625 C 2.171875 -3.332031 2.175781 -3.265625 2.1875 -3.203125 L 2.859375 -3.203125 C 3.867188 -3.210938 4.679688 -3.488281 5.296875 -4.03125 C 5.921875 -4.570312 6.238281 -5.359375 6.25 -6.390625 C 6.257812 -7.066406 6.125 -7.65625 5.84375 -8.15625 C 5.570312 -8.65625 5.191406 -9.03125 4.703125 -9.28125 C 4.210938 -9.539062 3.640625 -9.660156 2.984375 -9.640625 C 2.816406 -9.640625 2.675781 -9.546875 2.5625 -9.359375 C 2.445312 -9.179688 2.351562 -8.960938 2.28125 -8.703125 C 2.21875 -8.453125 2.179688 -8.203125 2.171875 -7.953125 Z M 2.171875 -3.640625 "/></g></g></g><g fill="#ffffff" fill-opacity="1"><g transform="translate(115.252471, 318.830487)"><g/></g></g><g fill="#ffffff" fill-opacity="1"><g transform="translate(125.47257, 318.830487)"><g><path d="M 3.09375 -0.140625 C 3.09375 -0.046875 3.046875 0 2.953125 0 L 0.84375 0 C 0.75 0 0.703125 -0.046875 0.703125 -0.140625 C 0.703125 -0.242188 0.71875 -0.335938 0.75 -0.421875 L 0.953125 -1.046875 C 1.097656 -1.535156 1.210938 -2.070312 1.296875 -2.65625 C 1.390625 -3.238281 1.441406 -3.785156 1.453125 -4.296875 L 1.453125 -7.890625 C 1.453125 -8.410156 1.40625 -8.988281 1.3125 -9.625 C 1.21875 -10.257812 1.097656 -10.828125 0.953125 -11.328125 L 0.734375 -11.953125 C 0.722656 -12.003906 0.710938 -12.050781 0.703125 -12.09375 C 0.703125 -12.144531 0.703125 -12.191406 0.703125 -12.234375 C 0.703125 -12.328125 0.75 -12.375 0.84375 -12.375 L 3.15625 -12.375 C 3.195312 -12.375 3.234375 -12.375 3.265625 -12.375 C 3.296875 -12.375 3.332031 -12.375 3.375 -12.375 C 4.320312 -12.375 5.148438 -12.1875 5.859375 -11.8125 C 6.566406 -11.4375 7.113281 -10.914062 7.5 -10.25 C 7.894531 -9.59375 8.09375 -8.820312 8.09375 -7.9375 C 8.09375 -7.0625 7.894531 -6.289062 7.5 -5.625 C 7.113281 -4.96875 6.566406 -4.453125 5.859375 -4.078125 C 5.148438 -3.703125 4.320312 -3.515625 3.375 -3.515625 C 3.21875 -3.515625 3.054688 -3.515625 2.890625 -3.515625 C 2.722656 -3.515625 2.554688 -3.515625 2.390625 -3.515625 C 2.429688 -3.085938 2.488281 -2.660156 2.5625 -2.234375 C 2.644531 -1.804688 2.742188 -1.410156 2.859375 -1.046875 L 3.0625 -0.421875 C 3.070312 -0.367188 3.078125 -0.316406 3.078125 -0.265625 C 3.085938 -0.222656 3.09375 -0.179688 3.09375 -0.140625 Z M 2.328125 -4.5 C 2.328125 -4.414062 2.328125 -4.328125 2.328125 -4.234375 C 2.328125 -4.140625 2.335938 -4.046875 2.359375 -3.953125 L 3.109375 -3.953125 C 4.222656 -3.960938 5.125 -4.304688 5.8125 -4.984375 C 6.5 -5.660156 6.847656 -6.632812 6.859375 -7.90625 C 6.878906 -8.75 6.734375 -9.476562 6.421875 -10.09375 C 6.117188 -10.707031 5.691406 -11.175781 5.140625 -11.5 C 4.597656 -11.820312 3.960938 -11.96875 3.234375 -11.9375 C 3.078125 -11.9375 2.945312 -11.832031 2.84375 -11.625 C 2.738281 -11.414062 2.65625 -11.148438 2.59375 -10.828125 C 2.53125 -10.503906 2.476562 -10.171875 2.4375 -9.828125 C 2.40625 -9.492188 2.378906 -9.191406 2.359375 -8.921875 C 2.335938 -8.648438 2.328125 -8.46875 2.328125 -8.375 Z M 2.328125 -4.5 "/></g></g></g><g fill="#ffffff" fill-opacity="1"><g transform="translate(139.045617, 318.830487)"><g><path d="M 2.125 -0.109375 C 2.125 -0.0351562 2.082031 0 2 0 L 0.5625 0 C 0.476562 0 0.4375 -0.0390625 0.4375 -0.125 C 0.4375 -0.195312 0.453125 -0.265625 0.484375 -0.328125 L 0.71875 -0.890625 C 0.882812 -1.296875 1.046875 -1.742188 1.203125 -2.234375 C 1.367188 -2.722656 1.492188 -3.175781 1.578125 -3.59375 L 3.03125 -10.046875 C 3.03125 -10.117188 3.070312 -10.15625 3.15625 -10.15625 L 5 -10.15625 C 5.101562 -10.15625 5.140625 -10.109375 5.109375 -10.015625 L 4.90625 -9.25 C 4.769531 -8.851562 4.703125 -8.398438 4.703125 -7.890625 C 4.703125 -7.378906 4.757812 -6.921875 4.875 -6.515625 L 5.75 -3.578125 C 5.863281 -3.171875 6 -2.710938 6.15625 -2.203125 C 6.3125 -1.703125 6.460938 -1.25 6.609375 -0.84375 L 6.78125 -0.328125 C 6.800781 -0.234375 6.8125 -0.160156 6.8125 -0.109375 C 6.8125 -0.0351562 6.769531 0 6.6875 0 L 4.796875 0 C 4.710938 0 4.671875 -0.0390625 4.671875 -0.125 C 4.671875 -0.195312 4.679688 -0.265625 4.703125 -0.328125 L 4.875 -0.84375 C 5.007812 -1.21875 5.082031 -1.640625 5.09375 -2.109375 C 5.113281 -2.578125 5.078125 -3.007812 4.984375 -3.40625 L 1.875 -3.40625 C 1.8125 -3.007812 1.785156 -2.578125 1.796875 -2.109375 C 1.816406 -1.640625 1.875 -1.210938 1.96875 -0.828125 L 2.09375 -0.328125 C 2.113281 -0.234375 2.125 -0.160156 2.125 -0.109375 Z M 3.21875 -9.4375 L 1.9375 -3.6875 L 4.921875 -3.6875 L 4.09375 -6.53125 C 3.976562 -6.9375 3.84375 -7.390625 3.6875 -7.890625 C 3.53125 -8.398438 3.390625 -8.859375 3.265625 -9.265625 Z M 3.21875 -9.4375 "/></g></g></g><g fill="#ffffff" fill-opacity="1"><g transform="translate(151.266957, 318.830487)"><g><path d="M 5.078125 -0.109375 C 5.078125 -0.0351562 5.035156 0 4.953125 0 L 3.0625 0 C 2.976562 0 2.9375 -0.0390625 2.9375 -0.125 C 2.9375 -0.164062 2.945312 -0.234375 2.96875 -0.328125 L 3.140625 -0.84375 C 3.273438 -1.195312 3.378906 -1.585938 3.453125 -2.015625 C 3.523438 -2.441406 3.570312 -2.851562 3.59375 -3.25 L 3.59375 -8.90625 C 3.582031 -9.144531 3.492188 -9.335938 3.328125 -9.484375 C 3.160156 -9.640625 2.9375 -9.71875 2.65625 -9.71875 C 2.375 -9.71875 2.128906 -9.640625 1.921875 -9.484375 C 1.710938 -9.328125 1.582031 -9.128906 1.53125 -8.890625 L 1.265625 -7.625 C 1.242188 -7.53125 1.179688 -7.484375 1.078125 -7.484375 L 0.609375 -7.484375 C 0.503906 -7.484375 0.453125 -7.53125 0.453125 -7.625 L 0.515625 -9.859375 C 0.515625 -9.953125 0.566406 -10 0.671875 -10 L 7.3125 -10 C 7.414062 -10 7.46875 -9.953125 7.46875 -9.859375 L 7.515625 -7.625 C 7.515625 -7.53125 7.460938 -7.484375 7.359375 -7.484375 L 6.90625 -7.484375 C 6.800781 -7.484375 6.734375 -7.53125 6.703125 -7.625 L 6.453125 -8.890625 C 6.398438 -9.128906 6.269531 -9.328125 6.0625 -9.484375 C 5.863281 -9.640625 5.617188 -9.71875 5.328125 -9.71875 C 5.054688 -9.71875 4.832031 -9.640625 4.65625 -9.484375 C 4.488281 -9.335938 4.398438 -9.144531 4.390625 -8.90625 L 4.390625 -3.640625 C 4.390625 -3.203125 4.429688 -2.726562 4.515625 -2.21875 C 4.609375 -1.71875 4.722656 -1.265625 4.859375 -0.859375 L 5.046875 -0.328125 C 5.066406 -0.265625 5.078125 -0.191406 5.078125 -0.109375 Z M 5.078125 -0.109375 "/></g></g></g><g fill="#ffffff" fill-opacity="1"><g transform="translate(164.190482, 318.830487)"><g><path d="M 2.84375 -0.109375 C 2.84375 -0.0351562 2.800781 0 2.71875 0 L 0.828125 0 C 0.742188 0 0.703125 -0.0390625 0.703125 -0.125 C 0.703125 -0.164062 0.710938 -0.234375 0.734375 -0.328125 L 0.90625 -0.84375 C 1.050781 -1.25 1.164062 -1.707031 1.25 -2.21875 C 1.34375 -2.726562 1.390625 -3.203125 1.390625 -3.640625 L 1.390625 -6.375 C 1.390625 -6.789062 1.34375 -7.253906 1.25 -7.765625 C 1.164062 -8.285156 1.050781 -8.75 0.90625 -9.15625 L 0.734375 -9.65625 C 0.710938 -9.75 0.703125 -9.828125 0.703125 -9.890625 C 0.703125 -9.960938 0.742188 -10 0.828125 -10 L 2.71875 -10 C 2.800781 -10 2.84375 -9.960938 2.84375 -9.890625 C 2.84375 -9.828125 2.832031 -9.75 2.8125 -9.65625 L 2.640625 -9.15625 C 2.515625 -8.789062 2.410156 -8.378906 2.328125 -7.921875 C 2.253906 -7.472656 2.203125 -7.046875 2.171875 -6.640625 L 2.171875 -6.625 L 5.484375 -6.625 C 5.472656 -7.03125 5.425781 -7.460938 5.34375 -7.921875 C 5.257812 -8.378906 5.148438 -8.789062 5.015625 -9.15625 L 4.84375 -9.65625 C 4.820312 -9.75 4.8125 -9.828125 4.8125 -9.890625 C 4.8125 -9.960938 4.851562 -10 4.9375 -10 L 6.828125 -10 C 6.910156 -10 6.953125 -9.960938 6.953125 -9.890625 C 6.953125 -9.828125 6.941406 -9.75 6.921875 -9.65625 L 6.75 -9.15625 C 6.625 -8.789062 6.519531 -8.378906 6.4375 -7.921875 C 6.363281 -7.472656 6.3125 -7.046875 6.28125 -6.640625 L 6.28125 -3.359375 C 6.3125 -2.953125 6.363281 -2.523438 6.4375 -2.078125 C 6.519531 -1.628906 6.625 -1.222656 6.75 -0.859375 L 6.921875 -0.328125 C 6.941406 -0.265625 6.953125 -0.191406 6.953125 -0.109375 C 6.953125 -0.0351562 6.910156 0 6.828125 0 L 4.9375 0 C 4.851562 0 4.8125 -0.0390625 4.8125 -0.125 C 4.8125 -0.164062 4.820312 -0.234375 4.84375 -0.328125 L 5.015625 -0.84375 C 5.160156 -1.25 5.273438 -1.707031 5.359375 -2.21875 C 5.453125 -2.726562 5.5 -3.203125 5.5 -3.640625 L 5.5 -6.34375 L 2.171875 -6.34375 L 2.171875 -3.359375 C 2.203125 -2.953125 2.253906 -2.523438 2.328125 -2.078125 C 2.410156 -1.628906 2.515625 -1.222656 2.640625 -0.859375 L 2.8125 -0.328125 C 2.832031 -0.265625 2.84375 -0.191406 2.84375 -0.109375 Z M 2.84375 -0.109375 "/></g></g></g><g fill="#ffffff" fill-opacity="1"><g transform="translate(176.798026, 318.830487)"><g/></g></g><g fill="#ffffff" fill-opacity="1"><g transform="translate(187.018126, 318.830487)"><g><path d="M 5.578125 -0.140625 C 5.578125 -0.046875 5.53125 0 5.4375 0 L 3.34375 0 C 3.257812 0 3.21875 -0.046875 3.21875 -0.140625 C 3.21875 -0.179688 3.21875 -0.222656 3.21875 -0.265625 C 3.226562 -0.316406 3.238281 -0.367188 3.25 -0.421875 L 3.4375 -1.046875 C 3.570312 -1.484375 3.6875 -1.96875 3.78125 -2.5 C 3.875 -3.03125 3.929688 -3.535156 3.953125 -4.015625 L 3.953125 -11.015625 C 3.941406 -11.316406 3.84375 -11.5625 3.65625 -11.75 C 3.46875 -11.9375 3.207031 -12.03125 2.875 -12.03125 C 2.570312 -12.03125 2.304688 -11.9375 2.078125 -11.75 C 1.847656 -11.5625 1.707031 -11.316406 1.65625 -11.015625 L 1.359375 -9.453125 C 1.328125 -9.328125 1.253906 -9.265625 1.140625 -9.265625 L 0.625 -9.265625 C 0.507812 -9.265625 0.453125 -9.328125 0.453125 -9.453125 L 0.53125 -12.203125 C 0.53125 -12.316406 0.585938 -12.375 0.703125 -12.375 L 8.0625 -12.375 C 8.175781 -12.375 8.234375 -12.316406 8.234375 -12.203125 L 8.3125 -9.453125 C 8.3125 -9.328125 8.25 -9.265625 8.125 -9.265625 L 7.625 -9.265625 C 7.507812 -9.265625 7.4375 -9.328125 7.40625 -9.453125 L 7.109375 -11.015625 C 7.054688 -11.316406 6.914062 -11.5625 6.6875 -11.75 C 6.457031 -11.9375 6.179688 -12.03125 5.859375 -12.03125 C 5.554688 -12.03125 5.3125 -11.9375 5.125 -11.75 C 4.9375 -11.570312 4.835938 -11.332031 4.828125 -11.03125 L 4.828125 -4.5 C 4.828125 -3.96875 4.875 -3.390625 4.96875 -2.765625 C 5.070312 -2.140625 5.203125 -1.566406 5.359375 -1.046875 L 5.546875 -0.421875 C 5.554688 -0.367188 5.5625 -0.316406 5.5625 -0.265625 C 5.570312 -0.222656 5.578125 -0.179688 5.578125 -0.140625 Z M 5.578125 -0.140625 "/></g></g></g><g fill="#ffffff" fill-opacity="1"><g transform="translate(200.731614, 318.830487)"><g><path d="M 11.890625 -4.984375 C 11.890625 -3.953125 11.65625 -3.046875 11.1875 -2.265625 C 10.71875 -1.492188 10.054688 -0.890625 9.203125 -0.453125 C 8.359375 -0.0234375 7.375 0.1875 6.25 0.1875 C 5.132812 0.1875 4.148438 -0.0234375 3.296875 -0.453125 C 2.453125 -0.890625 1.789062 -1.492188 1.3125 -2.265625 C 0.84375 -3.046875 0.609375 -3.953125 0.609375 -4.984375 C 0.609375 -6.015625 0.84375 -6.921875 1.3125 -7.703125 C 1.789062 -8.492188 2.453125 -9.109375 3.296875 -9.546875 C 4.148438 -9.984375 5.132812 -10.203125 6.25 -10.203125 C 7.375 -10.203125 8.359375 -9.984375 9.203125 -9.546875 C 10.054688 -9.109375 10.71875 -8.5 11.1875 -7.71875 C 11.65625 -6.9375 11.890625 -6.023438 11.890625 -4.984375 Z M 1.84375 -3.8125 C 2.1875 -2.675781 2.757812 -1.785156 3.5625 -1.140625 C 4.363281 -0.503906 5.28125 -0.1875 6.3125 -0.1875 C 6.757812 -0.1875 7.203125 -0.25 7.640625 -0.375 C 8.515625 -0.601562 9.222656 -1 9.765625 -1.5625 C 10.316406 -2.125 10.671875 -2.800781 10.828125 -3.59375 C 10.992188 -4.394531 10.9375 -5.253906 10.65625 -6.171875 C 10.320312 -7.316406 9.753906 -8.207031 8.953125 -8.84375 C 8.148438 -9.476562 7.234375 -9.796875 6.203125 -9.796875 C 5.742188 -9.796875 5.296875 -9.738281 4.859375 -9.625 C 3.984375 -9.382812 3.273438 -8.976562 2.734375 -8.40625 C 2.191406 -7.84375 1.835938 -7.164062 1.671875 -6.375 C 1.515625 -5.59375 1.570312 -4.738281 1.84375 -3.8125 Z M 1.84375 -3.8125 "/></g></g></g><g fill="#ffffff" fill-opacity="1"><g transform="translate(218.184253, 318.830487)"><g/></g></g><g fill="#ffffff" fill-opacity="1"><g transform="translate(228.404353, 318.830487)"><g><path d="M 2.5625 -0.140625 C 2.5625 -0.046875 2.515625 0 2.421875 0 L 0.84375 0 C 0.75 0 0.703125 -0.046875 0.703125 -0.140625 C 0.703125 -0.242188 0.71875 -0.335938 0.75 -0.421875 L 1.015625 -1.109375 C 1.203125 -1.597656 1.363281 -2.148438 1.5 -2.765625 C 1.644531 -3.378906 1.742188 -3.953125 1.796875 -4.484375 L 2.28125 -10.046875 C 2.300781 -10.316406 2.257812 -10.582031 2.15625 -10.84375 C 2.0625 -11.101562 1.921875 -11.328125 1.734375 -11.515625 L 1.171875 -12.0625 C 1.117188 -12.125 1.09375 -12.191406 1.09375 -12.265625 C 1.09375 -12.335938 1.125 -12.375 1.1875 -12.375 L 3.28125 -12.375 C 3.394531 -12.375 3.472656 -12.316406 3.515625 -12.203125 L 3.703125 -11.359375 C 3.835938 -10.847656 3.988281 -10.28125 4.15625 -9.65625 C 4.332031 -9.039062 4.503906 -8.476562 4.671875 -7.96875 L 5.765625 -4.765625 C 5.867188 -4.429688 5.988281 -4.078125 6.125 -3.703125 L 8.75 -12.265625 C 8.75 -12.335938 8.796875 -12.375 8.890625 -12.375 L 10.90625 -12.375 C 11.019531 -12.375 11.066406 -12.316406 11.046875 -12.203125 L 10.796875 -11.34375 C 10.660156 -10.84375 10.566406 -10.269531 10.515625 -9.625 C 10.472656 -8.988281 10.476562 -8.414062 10.53125 -7.90625 L 10.921875 -4.484375 C 10.984375 -3.960938 11.082031 -3.382812 11.21875 -2.75 C 11.351562 -2.125 11.492188 -1.554688 11.640625 -1.046875 L 11.84375 -0.421875 C 11.863281 -0.367188 11.875 -0.316406 11.875 -0.265625 C 11.875 -0.222656 11.875 -0.179688 11.875 -0.140625 C 11.875 -0.046875 11.832031 0 11.75 0 L 9.640625 0 C 9.546875 0 9.5 -0.046875 9.5 -0.140625 C 9.5 -0.179688 9.5 -0.222656 9.5 -0.265625 C 9.507812 -0.316406 9.519531 -0.367188 9.53125 -0.421875 L 9.734375 -1.03125 C 9.890625 -1.550781 9.992188 -2.125 10.046875 -2.75 C 10.109375 -3.375 10.109375 -3.941406 10.046875 -4.453125 L 9.65625 -7.921875 C 9.601562 -8.429688 9.515625 -9.003906 9.390625 -9.640625 C 9.265625 -10.285156 9.128906 -10.859375 8.984375 -11.359375 L 8.90625 -11.671875 L 6.921875 -4.9375 C 6.765625 -4.4375 6.691406 -3.875 6.703125 -3.25 C 6.710938 -2.632812 6.796875 -2.078125 6.953125 -1.578125 L 7.03125 -1.359375 L 7.21875 -0.9375 C 7.25 -0.8125 7.257812 -0.695312 7.25 -0.59375 C 7.25 -0.476562 7.191406 -0.429688 7.078125 -0.453125 L 5.4375 -0.8125 C 5.320312 -0.84375 5.269531 -0.929688 5.28125 -1.078125 C 5.34375 -1.597656 5.335938 -2.171875 5.265625 -2.796875 C 5.191406 -3.421875 5.070312 -3.988281 4.90625 -4.5 L 3.484375 -8.734375 C 3.398438 -8.984375 3.289062 -9.242188 3.15625 -9.515625 C 3.019531 -9.785156 2.867188 -10.050781 2.703125 -10.3125 L 2.140625 -4.484375 C 2.097656 -3.960938 2.097656 -3.382812 2.140625 -2.75 C 2.191406 -2.113281 2.273438 -1.535156 2.390625 -1.015625 L 2.53125 -0.421875 C 2.539062 -0.367188 2.546875 -0.316406 2.546875 -0.265625 C 2.554688 -0.222656 2.5625 -0.179688 2.5625 -0.140625 Z M 2.5625 -0.140625 "/></g></g></g><g fill="#ffffff" fill-opacity="1"><g transform="translate(245.927202, 318.830487)"><g><path d="M 2.125 -0.109375 C 2.125 -0.0351562 2.082031 0 2 0 L 0.5625 0 C 0.476562 0 0.4375 -0.0390625 0.4375 -0.125 C 0.4375 -0.195312 0.453125 -0.265625 0.484375 -0.328125 L 0.71875 -0.890625 C 0.882812 -1.296875 1.046875 -1.742188 1.203125 -2.234375 C 1.367188 -2.722656 1.492188 -3.175781 1.578125 -3.59375 L 3.03125 -10.046875 C 3.03125 -10.117188 3.070312 -10.15625 3.15625 -10.15625 L 5 -10.15625 C 5.101562 -10.15625 5.140625 -10.109375 5.109375 -10.015625 L 4.90625 -9.25 C 4.769531 -8.851562 4.703125 -8.398438 4.703125 -7.890625 C 4.703125 -7.378906 4.757812 -6.921875 4.875 -6.515625 L 5.75 -3.578125 C 5.863281 -3.171875 6 -2.710938 6.15625 -2.203125 C 6.3125 -1.703125 6.460938 -1.25 6.609375 -0.84375 L 6.78125 -0.328125 C 6.800781 -0.234375 6.8125 -0.160156 6.8125 -0.109375 C 6.8125 -0.0351562 6.769531 0 6.6875 0 L 4.796875 0 C 4.710938 0 4.671875 -0.0390625 4.671875 -0.125 C 4.671875 -0.195312 4.679688 -0.265625 4.703125 -0.328125 L 4.875 -0.84375 C 5.007812 -1.21875 5.082031 -1.640625 5.09375 -2.109375 C 5.113281 -2.578125 5.078125 -3.007812 4.984375 -3.40625 L 1.875 -3.40625 C 1.8125 -3.007812 1.785156 -2.578125 1.796875 -2.109375 C 1.816406 -1.640625 1.875 -1.210938 1.96875 -0.828125 L 2.09375 -0.328125 C 2.113281 -0.234375 2.125 -0.160156 2.125 -0.109375 Z M 3.21875 -9.4375 L 1.9375 -3.6875 L 4.921875 -3.6875 L 4.09375 -6.53125 C 3.976562 -6.9375 3.84375 -7.390625 3.6875 -7.890625 C 3.53125 -8.398438 3.390625 -8.859375 3.265625 -9.265625 Z M 3.21875 -9.4375 "/></g></g></g><g fill="#ffffff" fill-opacity="1"><g transform="translate(258.148541, 318.830487)"><g><path d="M 7.1875 -2.359375 C 7.1875 -1.878906 7.046875 -1.441406 6.765625 -1.046875 C 6.492188 -0.660156 6.117188 -0.359375 5.640625 -0.140625 C 5.160156 0.078125 4.601562 0.1875 3.96875 0.1875 C 2.945312 0.1875 2.140625 -0.0507812 1.546875 -0.53125 C 0.960938 -1.007812 0.671875 -1.625 0.671875 -2.375 C 0.671875 -2.863281 0.796875 -3.382812 1.046875 -3.9375 C 1.097656 -4.007812 1.15625 -4.066406 1.21875 -4.109375 C 1.28125 -4.160156 1.359375 -4.175781 1.453125 -4.15625 C 1.609375 -4.132812 1.785156 -4.113281 1.984375 -4.09375 C 2.191406 -4.070312 2.375 -4.046875 2.53125 -4.015625 C 2.632812 -4.003906 2.6875 -3.945312 2.6875 -3.84375 C 2.6875 -3.757812 2.644531 -3.691406 2.5625 -3.640625 C 2.207031 -3.378906 1.953125 -3.101562 1.796875 -2.8125 C 1.640625 -2.53125 1.5625 -2.253906 1.5625 -1.984375 C 1.5625 -1.503906 1.789062 -1.082031 2.25 -0.71875 C 2.707031 -0.351562 3.289062 -0.171875 4 -0.171875 C 4.675781 -0.179688 5.195312 -0.390625 5.5625 -0.796875 C 5.925781 -1.210938 6.070312 -1.734375 6 -2.359375 C 5.9375 -2.898438 5.675781 -3.378906 5.21875 -3.796875 C 4.769531 -4.210938 4.265625 -4.601562 3.703125 -4.96875 C 3.296875 -5.238281 2.890625 -5.523438 2.484375 -5.828125 C 2.078125 -6.128906 1.734375 -6.460938 1.453125 -6.828125 C 1.179688 -7.203125 1.035156 -7.609375 1.015625 -8.046875 C 0.992188 -8.660156 1.242188 -9.175781 1.765625 -9.59375 C 2.285156 -10.019531 2.972656 -10.234375 3.828125 -10.234375 C 4.691406 -10.234375 5.382812 -10.035156 5.90625 -9.640625 C 6.4375 -9.242188 6.675781 -8.734375 6.625 -8.109375 C 6.613281 -7.910156 6.585938 -7.722656 6.546875 -7.546875 C 6.503906 -7.367188 6.425781 -7.164062 6.3125 -6.9375 C 6.226562 -6.789062 6.109375 -6.726562 5.953125 -6.75 C 5.835938 -6.769531 5.6875 -6.789062 5.5 -6.8125 C 5.320312 -6.832031 5.171875 -6.847656 5.046875 -6.859375 C 4.960938 -6.878906 4.921875 -6.925781 4.921875 -7 C 4.921875 -7.082031 4.945312 -7.144531 5 -7.1875 C 5.257812 -7.34375 5.457031 -7.507812 5.59375 -7.6875 C 5.726562 -7.875 5.800781 -8.097656 5.8125 -8.359375 C 5.832031 -8.804688 5.65625 -9.171875 5.28125 -9.453125 C 4.90625 -9.742188 4.410156 -9.878906 3.796875 -9.859375 C 3.222656 -9.835938 2.769531 -9.65625 2.4375 -9.3125 C 2.113281 -8.976562 1.976562 -8.546875 2.03125 -8.015625 C 2.070312 -7.703125 2.203125 -7.414062 2.421875 -7.15625 C 2.640625 -6.90625 2.90625 -6.671875 3.21875 -6.453125 C 3.539062 -6.234375 3.863281 -6.019531 4.1875 -5.8125 C 4.664062 -5.507812 5.132812 -5.1875 5.59375 -4.84375 C 6.050781 -4.507812 6.429688 -4.140625 6.734375 -3.734375 C 7.046875 -3.328125 7.195312 -2.867188 7.1875 -2.359375 Z M 7.1875 -2.359375 "/></g></g></g><g fill="#ffffff" fill-opacity="1"><g transform="translate(270.931614, 318.830487)"><g><path d="M 5.078125 -0.109375 C 5.078125 -0.0351562 5.035156 0 4.953125 0 L 3.0625 0 C 2.976562 0 2.9375 -0.0390625 2.9375 -0.125 C 2.9375 -0.164062 2.945312 -0.234375 2.96875 -0.328125 L 3.140625 -0.84375 C 3.273438 -1.195312 3.378906 -1.585938 3.453125 -2.015625 C 3.523438 -2.441406 3.570312 -2.851562 3.59375 -3.25 L 3.59375 -8.90625 C 3.582031 -9.144531 3.492188 -9.335938 3.328125 -9.484375 C 3.160156 -9.640625 2.9375 -9.71875 2.65625 -9.71875 C 2.375 -9.71875 2.128906 -9.640625 1.921875 -9.484375 C 1.710938 -9.328125 1.582031 -9.128906 1.53125 -8.890625 L 1.265625 -7.625 C 1.242188 -7.53125 1.179688 -7.484375 1.078125 -7.484375 L 0.609375 -7.484375 C 0.503906 -7.484375 0.453125 -7.53125 0.453125 -7.625 L 0.515625 -9.859375 C 0.515625 -9.953125 0.566406 -10 0.671875 -10 L 7.3125 -10 C 7.414062 -10 7.46875 -9.953125 7.46875 -9.859375 L 7.515625 -7.625 C 7.515625 -7.53125 7.460938 -7.484375 7.359375 -7.484375 L 6.90625 -7.484375 C 6.800781 -7.484375 6.734375 -7.53125 6.703125 -7.625 L 6.453125 -8.890625 C 6.398438 -9.128906 6.269531 -9.328125 6.0625 -9.484375 C 5.863281 -9.640625 5.617188 -9.71875 5.328125 -9.71875 C 5.054688 -9.71875 4.832031 -9.640625 4.65625 -9.484375 C 4.488281 -9.335938 4.398438 -9.144531 4.390625 -8.90625 L 4.390625 -3.640625 C 4.390625 -3.203125 4.429688 -2.726562 4.515625 -2.21875 C 4.609375 -1.71875 4.722656 -1.265625 4.859375 -0.859375 L 5.046875 -0.328125 C 5.066406 -0.265625 5.078125 -0.191406 5.078125 -0.109375 Z M 5.078125 -0.109375 "/></g></g></g><g fill="#ffffff" fill-opacity="1"><g transform="translate(283.855151, 318.830487)"><g><path d="M 6.203125 -0.140625 C 6.179688 -0.046875 6.125 0 6.03125 0 L 0.828125 0 C 0.742188 0 0.703125 -0.0390625 0.703125 -0.125 C 0.703125 -0.164062 0.710938 -0.234375 0.734375 -0.328125 L 0.90625 -0.84375 C 1.050781 -1.25 1.164062 -1.707031 1.25 -2.21875 C 1.34375 -2.726562 1.390625 -3.203125 1.390625 -3.640625 L 1.390625 -6.359375 C 1.390625 -6.785156 1.34375 -7.253906 1.25 -7.765625 C 1.164062 -8.273438 1.050781 -8.738281 0.90625 -9.15625 L 0.734375 -9.65625 C 0.710938 -9.75 0.703125 -9.828125 0.703125 -9.890625 C 0.703125 -9.960938 0.742188 -10 0.828125 -10 L 5.859375 -10 C 5.984375 -10 6.046875 -9.953125 6.046875 -9.859375 L 6.375 -7.625 C 6.394531 -7.53125 6.347656 -7.484375 6.234375 -7.484375 L 5.9375 -7.484375 C 5.832031 -7.484375 5.769531 -7.53125 5.75 -7.625 L 5.53125 -8.34375 C 5.414062 -8.75 5.175781 -9.078125 4.8125 -9.328125 C 4.457031 -9.585938 4.039062 -9.71875 3.5625 -9.71875 L 3.3125 -9.71875 C 2.988281 -9.695312 2.722656 -9.597656 2.515625 -9.421875 C 2.316406 -9.253906 2.203125 -9.019531 2.171875 -8.71875 L 2.171875 -6.21875 L 3.359375 -6.21875 C 3.597656 -6.21875 3.800781 -6.28125 3.96875 -6.40625 C 4.132812 -6.539062 4.234375 -6.710938 4.265625 -6.921875 L 4.296875 -7.21875 C 4.328125 -7.3125 4.390625 -7.359375 4.484375 -7.359375 L 4.578125 -7.359375 C 4.703125 -7.359375 4.75 -7.3125 4.71875 -7.21875 L 4.4375 -4.921875 C 4.4375 -4.828125 4.378906 -4.78125 4.265625 -4.78125 L 4.15625 -4.78125 C 4.0625 -4.78125 4.015625 -4.828125 4.015625 -4.921875 L 4.078125 -5.21875 C 4.097656 -5.425781 4.039062 -5.597656 3.90625 -5.734375 C 3.78125 -5.867188 3.597656 -5.9375 3.359375 -5.9375 L 2.171875 -5.9375 L 2.171875 -1.28125 C 2.203125 -0.988281 2.316406 -0.75 2.515625 -0.5625 C 2.722656 -0.382812 2.988281 -0.289062 3.3125 -0.28125 L 3.71875 -0.28125 C 4.195312 -0.28125 4.613281 -0.40625 4.96875 -0.65625 C 5.332031 -0.90625 5.570312 -1.242188 5.6875 -1.671875 L 5.90625 -2.375 C 5.925781 -2.46875 5.988281 -2.515625 6.09375 -2.515625 L 6.390625 -2.515625 C 6.503906 -2.515625 6.550781 -2.46875 6.53125 -2.375 Z M 6.203125 -0.140625 "/></g></g></g><g fill="#ffffff" fill-opacity="1"><g transform="translate(296.094057, 318.830487)"><g><path d="M 2.84375 -0.109375 C 2.84375 -0.0351562 2.800781 0 2.71875 0 L 0.84375 0 C 0.75 0 0.703125 -0.0390625 0.703125 -0.125 C 0.703125 -0.195312 0.71875 -0.265625 0.75 -0.328125 L 0.9375 -0.84375 C 1.0625 -1.226562 1.164062 -1.65625 1.25 -2.125 C 1.332031 -2.601562 1.378906 -3.046875 1.390625 -3.453125 L 1.390625 -6.375 C 1.390625 -6.789062 1.34375 -7.253906 1.25 -7.765625 C 1.164062 -8.285156 1.050781 -8.75 0.90625 -9.15625 L 0.734375 -9.65625 C 0.710938 -9.75 0.703125 -9.828125 0.703125 -9.890625 C 0.703125 -9.960938 0.742188 -10 0.828125 -10 L 2.921875 -10 C 2.953125 -10 2.984375 -10 3.015625 -10 C 3.054688 -10 3.085938 -10 3.109375 -10 C 3.953125 -10 4.691406 -9.847656 5.328125 -9.546875 C 5.960938 -9.242188 6.457031 -8.820312 6.8125 -8.28125 C 7.175781 -7.75 7.359375 -7.125 7.359375 -6.40625 C 7.359375 -5.53125 7.085938 -4.785156 6.546875 -4.171875 C 6.015625 -3.566406 5.289062 -3.164062 4.375 -2.96875 C 4.507812 -2.957031 4.671875 -2.90625 4.859375 -2.8125 C 5.046875 -2.726562 5.253906 -2.578125 5.484375 -2.359375 L 7.484375 -0.390625 C 7.609375 -0.265625 7.648438 -0.164062 7.609375 -0.09375 C 7.566406 -0.03125 7.46875 0 7.3125 0 L 5.90625 0 C 5.800781 0 5.71875 -0.046875 5.65625 -0.140625 C 5.582031 -0.296875 5.46875 -0.519531 5.3125 -0.8125 C 5.15625 -1.113281 4.984375 -1.410156 4.796875 -1.703125 C 4.617188 -2.003906 4.460938 -2.222656 4.328125 -2.359375 C 4.140625 -2.523438 3.921875 -2.644531 3.671875 -2.71875 C 3.421875 -2.789062 3.1875 -2.832031 2.96875 -2.84375 C 2.851562 -2.84375 2.726562 -2.84375 2.59375 -2.84375 C 2.46875 -2.84375 2.34375 -2.84375 2.21875 -2.84375 C 2.28125 -2.113281 2.421875 -1.453125 2.640625 -0.859375 L 2.8125 -0.328125 C 2.832031 -0.304688 2.84375 -0.269531 2.84375 -0.21875 C 2.84375 -0.175781 2.84375 -0.140625 2.84375 -0.109375 Z M 2.171875 -3.640625 C 2.171875 -3.566406 2.171875 -3.488281 2.171875 -3.40625 C 2.171875 -3.332031 2.175781 -3.265625 2.1875 -3.203125 L 2.859375 -3.203125 C 3.867188 -3.210938 4.679688 -3.488281 5.296875 -4.03125 C 5.921875 -4.570312 6.238281 -5.359375 6.25 -6.390625 C 6.257812 -7.066406 6.125 -7.65625 5.84375 -8.15625 C 5.570312 -8.65625 5.191406 -9.03125 4.703125 -9.28125 C 4.210938 -9.539062 3.640625 -9.660156 2.984375 -9.640625 C 2.816406 -9.640625 2.675781 -9.546875 2.5625 -9.359375 C 2.445312 -9.179688 2.351562 -8.960938 2.28125 -8.703125 C 2.21875 -8.453125 2.179688 -8.203125 2.171875 -7.953125 Z M 2.171875 -3.640625 "/></g></g></g><g fill="#ffffff" fill-opacity="1"><g transform="translate(309.21068, 318.830487)"><g><path d="M 4.25 -0.109375 C 4.25 -0.0351562 4.207031 0 4.125 0 L 2.234375 0 C 2.148438 0 2.109375 -0.0390625 2.109375 -0.125 C 2.109375 -0.164062 2.117188 -0.234375 2.140625 -0.328125 L 2.3125 -0.84375 C 2.457031 -1.25 2.570312 -1.707031 2.65625 -2.21875 C 2.75 -2.726562 2.789062 -3.203125 2.78125 -3.640625 L 2.78125 -3.875 L 1.828125 -6.453125 C 1.671875 -6.859375 1.488281 -7.300781 1.28125 -7.78125 C 1.082031 -8.257812 0.882812 -8.695312 0.6875 -9.09375 L 0.40625 -9.671875 C 0.363281 -9.734375 0.34375 -9.804688 0.34375 -9.890625 C 0.34375 -9.960938 0.382812 -10 0.46875 -10 L 2.375 -10 C 2.457031 -10 2.5 -9.960938 2.5 -9.890625 C 2.5 -9.847656 2.5 -9.804688 2.5 -9.765625 C 2.5 -9.734375 2.488281 -9.695312 2.46875 -9.65625 L 2.421875 -9.359375 C 2.328125 -8.890625 2.300781 -8.375 2.34375 -7.8125 C 2.394531 -7.25 2.503906 -6.75 2.671875 -6.3125 L 3.390625 -4.359375 L 4.109375 -6.3125 C 4.273438 -6.75 4.378906 -7.25 4.421875 -7.8125 C 4.472656 -8.375 4.453125 -8.890625 4.359375 -9.359375 L 4.296875 -9.65625 C 4.285156 -9.695312 4.28125 -9.734375 4.28125 -9.765625 C 4.28125 -9.804688 4.28125 -9.847656 4.28125 -9.890625 C 4.28125 -9.960938 4.320312 -10 4.40625 -10 L 5.859375 -10 C 5.953125 -10 6 -9.960938 6 -9.890625 C 6 -9.847656 5.992188 -9.804688 5.984375 -9.765625 C 5.972656 -9.734375 5.960938 -9.703125 5.953125 -9.671875 L 5.671875 -9.09375 C 5.484375 -8.695312 5.285156 -8.257812 5.078125 -7.78125 C 4.867188 -7.300781 4.6875 -6.859375 4.53125 -6.453125 L 3.578125 -3.90625 L 3.578125 -3.34375 C 3.609375 -2.9375 3.660156 -2.507812 3.734375 -2.0625 C 3.816406 -1.625 3.921875 -1.222656 4.046875 -0.859375 L 4.21875 -0.328125 C 4.238281 -0.265625 4.25 -0.191406 4.25 -0.109375 Z M 4.25 -0.109375 "/></g></g></g></svg>